<svg width="210" height="205" fill="none" xmlns="http://www.w3.org/2000/svg"><g filter="url(#filter0_d)" fill="#000"><path d="M205.673 140.846l-80.16 46.328a24 24 0 01-23.951.039l-60.204-34.535s-5.143-1.98-7.074-4.669c-1.348-1.877-2.147-5.513-2.147-5.513L11.716 70.108a18 18 0 018.18-20.391L99.463 2.792 94.339.734A4 4 0 0090.816 1L12.905 46.95a18 18 0 00-8.196 20.334l19.49 69.968 2.258 8.043 1.362 3.681a13.06 13.06 0 005.761 6.823c4.667 2.662 9.435 5.313 9.435 5.313l58.668 32.347a24 24 0 0023.597-.238l80.393-46.462v-5.912z"/><path d="M67.738 54.517l-1.833-3.007-1.52.65.907 3.404c.094.353.028.696-.17.886a6.03 6.03 0 00-1.144 1.529c-.14.262-.409.364-.694.26l-2.728-.984-.431 1.961 2.462 2.154c.258.226.424.59.427.939.008.782.1 1.584.273 2.385.077.355-.008.687-.219.856l-2.027 1.63.904 2.114 2.578-.34c.268-.036.566.131.77.432.46.679.976 1.299 1.535 1.845.25.243.399.615.383.958l-.147 3.273 1.718 1.032 1.173-2.647c.123-.278.382-.403.668-.322.641.179 1.278.255 1.895.227.274-.012.567.178.757.49l1.833 3.007 1.52-.65-.907-3.404c-.095-.353-.03-.696.168-.886a6.03 6.03 0 001.145-1.528c.14-.263.409-.364.694-.262l2.728.985.431-1.961-2.462-2.154a1.305 1.305 0 01-.427-.939c-.008-.782-.1-1.584-.273-2.385-.076-.355.009-.687.22-.856l2.027-1.63-.904-2.115-2.579.34c-.267.036-.566-.131-.77-.432-.46-.679-.975-1.3-1.535-1.845a1.305 1.305 0 01-.383-.958l.147-3.273-1.717-1.031-1.173 2.647c-.123.278-.382.403-.668.322a6.022 6.022 0 00-1.895-.227c-.274.012-.567-.178-.757-.49zm7.275 7.933c1.48 3.465.663 7.136-1.826 8.202-2.489 1.065-5.707-.88-7.187-4.344-1.48-3.464-.663-7.136 1.826-8.2 2.49-1.062 5.705.881 7.187 4.343z"/><path d="M75.323 56.567c.385.41.751.85 1.095 1.316l1.092-.15c.707-1.13.613-2.9-.23-4.364-.845-1.464-2.241-2.281-3.445-2.014l.48.29c.688.414 1.16 1.324 1.13 2.178l-.122 2.744zM67.287 65.757c1.058 2.474 3.356 3.864 5.134 3.103 1.778-.761 2.362-3.384 1.304-5.858-1.057-2.475-3.355-3.864-5.133-3.103-1.776.764-2.36 3.384-1.305 5.858zm3.863-1.653c.212.495.095 1.02-.26 1.171-.356.153-.816-.125-1.027-.62-.212-.495-.095-1.02.26-1.172.356-.152.816.126 1.027.62z"/><path d="M68.55 53.133c.445.011.897.066 1.352.164l.976-2.22c.163-.355.442-.59.783-.662a3.036 3.036 0 011.033-.75c1.571-.682 3.558.037 5.017 1.815 1.46 1.779 2.097 4.26 1.612 6.264.431.219.808.646 1.033 1.17l.391.915 2.002.723.29-1.3-1.863-1.626a1.305 1.305 0 01-.427-.949 8.854 8.854 0 00-.209-1.85c-.076-.356.009-.689.22-.858l1.533-1.225-.599-1.401-1.94.261c-.269.036-.568-.132-.772-.433a8.846 8.846 0 00-1.194-1.429 1.305 1.305 0 01-.393-.963l.112-2.471-1.14-.69-.885 2.005c-.124.28-.387.405-.676.32a4.483 4.483 0 00-1.472-.181c-.274.012-.568-.178-.758-.492l-1.377-2.266-1.007.431.688 2.567c.095.355.03.699-.169.889-.348.33-.645.73-.885 1.19-.14.266-.412.369-.701.262l-2.059-.743-.182.82c.047.061.092.125.134.192l1.532 2.521z"/><path fill-rule="evenodd" clip-rule="evenodd" d="M202.655 138.483l-74.622-43.249-89.899 52.11 63.207 35.846a24 24 0 0023.817-.078l77.497-44.629zm-40.531 10.755l-23.196-13.68-28.192 16.057 23.359 13.483 28.029-15.86zM55.052 87.672a4 4 0 00.714.202c.716.156 1.697.37 2.32 1.396.38.637.62 1.363.684 2.079.03.38.037.716.042 1.007l.002.077.004.205c.395.185.922.41 1.143.5.203.085.388.262.514.493.126.23.182.495.156.732a4.053 4.053 0 00-.012.66c.062.019.124.036.186.053.713.098 1.43.579 1.968 1.319.368.599.63 1.27.762 1.954.049.197.097.394.157.585.196.554.482 1.074.837 1.52.496.765 1.304 1.04 1.837.625 1.607-1.431 3.124-3 4.54-4.7l.004-.001c.49-.553.934-1.065 1.297-1.483l.099-.114c.353-.409.62-.716.761-.869 2.17-2.332 2.139-3.906 1.732-4.816-.22-.491-.114-1.022.236-1.186.168-.082.372-.065.566.046.195.112.363.31.467.547.988 2.208.356 4.545-1.877 6.951-.137.148-.395.445-.734.844l-.46.53c1.761 1.183 3.372 2.808 4.707 4.749l14.579-6.307-.082-.071a12.23 12.23 0 01-.996-.951 25.632 25.632 0 01-2-2.47 46.783 46.783 0 01-3.21-5.268c-1.536-2.889-2.508-6.066-2.817-9.203a26.264 26.264 0 01.1-5.009l.002-.02c.073-.855.15-1.737.17-2.609.072-2.298-.403-4.735-1.369-7.022-.076-.189-.158-.373-.24-.558h-.001l-.02-.047-.354-.127c.028.56-.151 1.045-.488 1.316l-1.694 1.361c.1.57.164 1.14.194 1.702l2.057 1.795c.649.57.985 1.553.801 2.344l-.433 1.944c-.173.786-.807 1.172-1.517.926l-2.285-.824a7.277 7.277 0 01-.817 1.091l.76 2.847c.234.887-.038 1.713-.65 1.974l-1.52.65c-.614.263-1.4-.113-1.878-.9l-1.531-2.511a7.274 7.274 0 01-1.352-.163l-.978 2.215c-.312.694-1.038.888-1.732.462l-1.705-1.03c-.688-.415-1.16-1.325-1.13-2.179l.123-2.743c-.386-.41-.752-.85-1.096-1.316l-2.156.287c-.673.086-1.418-.465-1.782-1.317l-.903-2.115c-.366-.854-.247-1.775.283-2.2l1.694-1.362c-.1-.57-.164-1.14-.195-1.702l-2.059-1.797c-.648-.57-.984-1.553-.8-2.344l.432-1.944c.174-.786.808-1.173 1.518-.926l2.285.824c.244-.397.517-.762.816-1.091l-.759-2.847c-.235-.887.038-1.713.65-1.974l1.52-.65c.086-.036.176-.06.27-.071l.213-.96c-2.06-.127-4.02.28-5.758 1.198a33.71 33.71 0 00-5.521 3.796c-2.292 1.83-3.684 3.946-4.141 6.285-.368 1.951-.39 4.075-.065 6.242.176 1.072.406 2.145.688 3.212.2.904.333 1.81.394 2.705l.006.06c.038.409.076.817.132 1.225.023.228.08.459.168.68.141.255.516.46.916.68l.01.004c.755.293 1.449.963 1.9 1.836.17.431.263.883.27 1.318.204 2.706.17 5.362-.099 7.92-.135 1.04-.096 1.413-.04 1.55.187.112.378.203.57.274zm-3.467-21.344c.105.667.24 1.336.406 2.001l-.002-.002c.078.335.287.635.549.786.261.15.535.13.718-.055.182-.186.246-.507.166-.842a21.45 21.45 0 01-.365-1.789c-.252-1.661-.237-3.29.043-4.788.319-1.629 1.405-3.195 3.23-4.653.307-.246.332-.814.056-1.27-.277-.456-.75-.626-1.058-.38-2.06 1.646-3.3 3.49-3.69 5.472-.325 1.726-.343 3.604-.053 5.52zm2.565 6.112c-.211-.495-.67-.773-1.026-.62-.356.152-.473.676-.261 1.17.211.496.67.774 1.026.621.356-.152.473-.676.261-1.171z"/><path fill-rule="evenodd" clip-rule="evenodd" d="M125.537 92.128l-90.322 53.359-19.637-74.27a18 18 0 018.155-20.045L96.76 7.446c2.266-1.357 5.202-.184 5.909 2.361l22.869 82.32zm-9.834-3.099l-75.871 44.196-15.045-58.472a18 18 0 018.282-19.986L91.783 20.11c2.275-1.342 5.203-.15 5.894 2.399l18.026 66.521zM65.905 51.51l1.833 3.008c.19.312.483.502.757.49a6.022 6.022 0 011.895.227c.286.081.545-.044.668-.322l1.173-2.647 1.717 1.03-.147 3.274c-.015.343.134.715.383.958.56.546 1.076 1.166 1.535 1.845.204.3.503.468.77.433l2.579-.341.904 2.115-2.028 1.63c-.21.17-.295.5-.219.856.173.802.265 1.603.273 2.385.003.349.17.713.427.939l2.462 2.154-.431 1.96-2.728-.984c-.285-.102-.554-.001-.694.261a6.03 6.03 0 01-1.145 1.53c-.197.189-.263.532-.168.885l.907 3.404-1.52.65-1.833-3.007c-.19-.312-.483-.502-.757-.49a6.023 6.023 0 01-1.895-.227c-.286-.081-.545.044-.668.322l-1.173 2.647-1.718-1.032.148-3.273a1.305 1.305 0 00-.384-.958 11.933 11.933 0 01-1.535-1.845c-.204-.3-.502-.468-.77-.433l-2.578.341-.904-2.114 2.027-1.63c.21-.17.296-.5.22-.856a11.944 11.944 0 01-.274-2.385 1.305 1.305 0 00-.427-.939l-2.462-2.154.431-1.96 2.728.984c.285.102.555.001.694-.261a6.03 6.03 0 011.145-1.53c.197-.189.263-.532.169-.885l-.907-3.404 1.52-.65zm10.513 6.374c-.344-.466-.71-.906-1.096-1.316l.123-2.744c.03-.854-.442-1.764-1.13-2.178l-.48-.29c1.204-.267 2.6.55 3.444 2.014.844 1.465.938 3.234.231 4.364l-1.092.15zm-6.516-4.586a7.274 7.274 0 00-1.352-.163l-1.532-2.522a2.343 2.343 0 00-.134-.192l.182-.82 2.059.743c.289.107.562.004.701-.263.24-.46.537-.86.885-1.19.198-.189.264-.533.169-.888l-.688-2.567 1.007-.43 1.377 2.265c.19.314.484.504.758.492.48-.024.974.037 1.472.18.289.086.552-.038.676-.32l.885-2.003 1.14.689-.112 2.47c-.014.348.139.723.394.964.436.42.837.901 1.193 1.43.204.3.503.468.771.432l1.941-.261.599 1.401-1.533 1.225c-.211.17-.296.502-.22.858.136.622.206 1.244.209 1.85 0 .352.166.721.427.95l1.863 1.625-.29 1.3-2.002-.723-.391-.916c-.225-.523-.602-.95-1.033-1.169.485-2.005-.153-4.485-1.612-6.264-1.46-1.778-3.446-2.497-5.017-1.816-.388.17-.736.424-1.033.751-.341.071-.62.306-.783.662l-.976 2.22zm3.285 17.355c2.49-1.066 3.307-4.737 1.826-8.202-1.483-3.46-4.698-5.404-7.187-4.343-2.49 1.066-3.307 4.737-1.826 8.201 1.48 3.464 4.698 5.409 7.187 4.344zm-5.9-4.895c1.058 2.474 3.356 3.864 5.134 3.103 1.778-.761 2.362-3.384 1.304-5.858-1.057-2.475-3.355-3.864-5.133-3.103-1.776.764-2.36 3.384-1.305 5.858zm3.863-1.653c.212.495.095 1.02-.26 1.171-.356.153-.816-.125-1.027-.62-.212-.495-.095-1.02.26-1.172.356-.152.816.126 1.027.62z"/></g><defs><filter id="filter0_d" x=".047" y=".445" width="209.626" height="203.995" filterUnits="userSpaceOnUse" color-interpolation-filters="sRGB"><feFlood flood-opacity="0" result="BackgroundImageFix"/><feColorMatrix in="SourceAlpha" values="0 0 0 0 0 0 0 0 0 0 0 0 0 0 0 0 0 0 127 0"/><feOffset dy="4"/><feGaussianBlur stdDeviation="2"/><feColorMatrix values="0 0 0 0 0 0 0 0 0 0 0 0 0 0 0 0 0 0 0.25 0"/><feBlend in2="BackgroundImageFix" result="effect1_dropShadow"/><feBlend in="SourceGraphic" in2="effect1_dropShadow" result="shape"/></filter></defs></svg>