<svg width="260" height="258" fill="none" xmlns="http://www.w3.org/2000/svg"><g filter="url(#filter0_d)" fill="#000"><path d="M17.191 109.148c-3.542 2.807-5.912 6.797-6.57 11.059-.66 4.261.45 8.431 3.075 11.556l5.816 6.929 25.58-21.466-5.327-6.347c-5.233-6.492-15.179-7.254-22.574-1.731zM138.893 125.112l19.384 23.098 25.579-21.465-19.383-23.099-25.58 21.466zm20.542-8.212c.269-1.718 1.875-3.044 3.609-2.981 1.735.063 2.958 1.492 2.749 3.212l-.801 5.762 5.813.211c1.73.093 2.926 1.545 2.687 3.264-.239 1.719-1.824 3.071-3.563 3.037l-5.813-.211-.802 5.762c-.138 1.14-.887 2.179-1.959 2.718-1.071.539-2.299.494-3.211-.117-.912-.611-1.366-1.693-1.187-2.831l.801-5.763-5.814-.211c-1.73-.092-2.925-1.545-2.686-3.264.239-1.719 1.824-3.07 3.562-3.037l5.814.211.801-5.762zM246.106 117.807c-5.359-6.368-15.415-6.733-22.482-.816l-74.436 62.465c5.993.149 11.428 2.684 15.076 7.031 3.648 4.347 5.201 10.14 4.308 16.068l74.436-62.466c7.054-5.932 8.439-15.9 3.098-22.282z"/><path d="M159.136 190.79c-5.358-6.368-15.415-6.733-22.482-.816-1.412 1.186-3.425 1.112-4.496-.163-1.07-1.276-.793-3.271.62-4.457l69.064-57.957-75.596-90.084c-5.358-6.368-15.415-6.733-22.481-.816L29.052 99.194c6.29.168 11.993 2.831 15.828 7.392l88.676 105.67c5.353 6.379 15.418 6.744 22.482.816 7.064-5.927 8.451-15.903 3.098-22.282zM84.08 80.571l-3.877-4.62c-1.07-1.275-.793-3.27.62-4.456 1.412-1.186 3.425-1.112 4.496.163l3.877 4.62c1.07 1.276.793 3.27-.62 4.456-1.413 1.186-3.426 1.113-4.496-.163zm7.753 9.24c-1.07-1.276-.793-3.271.62-4.457 1.412-1.185 3.426-1.112 4.496.163 1.07 1.276 3.084 1.35 4.496.164 1.413-1.186 3.426-1.113 4.497.163 1.07 1.276.793 3.27-.62 4.456-4.238 3.557-10.277 3.338-13.489-.49zm23.721-8.097c-1.413 1.186-3.426 1.112-4.496-.163-1.071-1.276-.793-3.271.619-4.457l5.116-4.293c1.413-1.185 3.426-1.112 4.496.163 1.071 1.276.794 3.271-.619 4.457l-5.116 4.293zm19.844-12.716c-1.071-1.276-3.084-1.349-4.496-.163-1.413 1.185-3.426 1.112-4.497-.164-1.07-1.275-.793-3.27.62-4.456 4.238-3.557 10.277-3.337 13.489.49 1.07 1.275.793 3.27-.62 4.456-1.412 1.186-3.425 1.112-4.496-.163zm7.753 9.24c-1.07-1.276-.793-3.272.62-4.457 1.413-1.186 3.426-1.113 4.496.163 3.212 3.827 2.38 9.813-1.858 13.37-1.413 1.185-3.426 1.112-4.497-.164-1.07-1.276-.793-3.27.62-4.456 1.413-1.186 1.69-3.181.619-4.457zm-31.934 34.671c-1.071-1.276-.793-3.271.619-4.457l5.116-4.293c1.413-1.185 3.426-1.112 4.497.164 1.07 1.275.793 3.27-.62 4.456l-5.116 4.293c-1.413 1.186-3.426 1.113-4.496-.163zm-5.736 8.749l-5.116 4.294c-1.412 1.185-3.425 1.112-4.496-.164-1.07-1.275-.793-3.271.62-4.456l5.116-4.293c1.412-1.186 3.425-1.113 4.496.163 1.07 1.276.793 3.271-.62 4.456zm21.084-21.629c-1.071-1.275-.794-3.27.619-4.456l5.116-4.293c1.413-1.186 3.426-1.113 4.496.163 1.071 1.276.794 3.271-.619 4.457l-5.116 4.293c-1.413 1.185-3.426 1.112-4.496-.164zm-42.167 43.258c-3.211-3.827-2.38-9.812 1.859-13.369 1.413-1.185 3.426-1.112 4.496.163 1.07 1.276.793 3.271-.62 4.457-1.412 1.185-1.69 3.181-.619 4.456 1.07 1.276.793 3.271-.62 4.457-1.412 1.185-3.425 1.112-4.496-.164zm11.63 13.86l-3.876-4.62c-1.07-1.276-.793-3.271.62-4.457 1.412-1.185 3.425-1.112 4.495.164l3.877 4.619c1.071 1.276.793 3.271-.619 4.457-1.413 1.185-3.426 1.112-4.497-.163zm7.754 9.239c-1.071-1.276-.793-3.271.619-4.457 1.413-1.185 3.426-1.112 4.497.164 1.07 1.275 3.083 1.348 4.496.163 1.413-1.186 3.426-1.112 4.496.163 1.071 1.276.793 3.271-.619 4.457-4.238 3.556-10.278 3.337-13.489-.49zm23.721-8.097c-1.413 1.186-3.426 1.113-4.497-.163-1.07-1.276-.793-3.271.62-4.456l5.116-4.293c1.412-1.186 3.426-1.113 4.496.163 1.071 1.275.793 3.271-.62 4.456l-5.115 4.293zm34.651-5.46c-2.825 2.371-6.851 2.225-8.992-.326l-7.754-9.24-2.558 2.147c-1.412 1.185-3.425 1.112-4.496-.163-1.071-1.276-.793-3.271.62-4.457l2.558-2.146-7.754-9.24c-2.141-2.551-1.586-6.542 1.239-8.913l25.58-21.465c2.825-2.371 6.851-2.225 8.992.326l19.384 23.099c2.141 2.551 1.586 6.541-1.239 8.912l-25.58 21.466z"/></g><defs><filter id="filter0_d" x="0" y="0" width="259.798" height="257.564" filterUnits="userSpaceOnUse" color-interpolation-filters="sRGB"><feFlood flood-opacity="0" result="BackgroundImageFix"/><feColorMatrix in="SourceAlpha" values="0 0 0 0 0 0 0 0 0 0 0 0 0 0 0 0 0 0 127 0"/><feOffset dy="4"/><feGaussianBlur stdDeviation="2"/><feColorMatrix values="0 0 0 0 0 0 0 0 0 0 0 0 0 0 0 0 0 0 0.25 0"/><feBlend in2="BackgroundImageFix" result="effect1_dropShadow"/><feBlend in="SourceGraphic" in2="effect1_dropShadow" result="shape"/></filter></defs></svg>