<svg width="193" height="184" fill="none" xmlns="http://www.w3.org/2000/svg"><g filter="url(#filter0_d)" fill="#000"><path d="M164.979 137.7v12.06c11.601-10.931 19.296-24.447 22.195-38.83-5.251 10.116-12.713 19.107-22.195 26.77zM158.017 155.649v-12.812c-7.157 4.807-15.025 8.734-23.494 11.713v14.097c8.573-3.288 16.453-7.646 23.494-12.998z"/><path d="M96.236 0C45.378 0 4 34.798 4 77.57c0 42.716 41.157 77.568 92.236 77.568 50.9 0 92.237-34.719 92.237-77.569C188.473 34.798 147.095 0 96.236 0zm0 135.571c-38.03 0-68.969-26.019-68.969-58.002 0-31.983 30.938-58.002 68.97-58.002 38.03 0 68.969 26.019 68.969 58.002 0 31.983-30.939 58.002-68.97 58.002zM127.562 171.039v-14.295c-8.973 2.513-18.306 3.918-27.845 4.193v14.632c9.569-.296 18.91-1.814 27.845-4.53zM92.756 175.569v-14.632c-9.539-.275-18.872-1.679-27.845-4.193v14.295c8.935 2.716 18.277 4.234 27.845 4.53z"/><path d="M5.298 110.93c2.9 14.383 10.595 27.899 22.196 38.83V137.7c-9.45-7.636-16.93-16.622-22.196-26.77zM57.95 168.647V154.55c-8.469-2.979-16.337-6.906-23.495-11.713v12.812c7.043 5.353 14.922 9.71 23.494 12.998z"/><path fill-rule="evenodd" clip-rule="evenodd" d="M96.236 25.422c-34.187 0-62.007 23.396-62.007 52.147 0 28.751 27.82 52.147 62.007 52.147 34.188 0 62.008-23.396 62.008-52.147 0-28.75-27.82-52.147-62.008-52.147zM72.89 44.756c-2.13-.581-4.505 1.366-4.31 3.535.961 10.739 1.657 18.865 2.184 25.025 1.474 17.226 1.633 19.08 2.607 19.708.117.076.246.134.39.199h.003l.079.036c1.276.58 1.308.567 11.984-3.714 3.58-1.436 8.36-3.352 14.785-5.888a3.799 3.799 0 001.779-1.459c3.61-5.63 6.306-9.826 8.321-12.962 5.682-8.843 5.955-9.268 6.08-9.732a1.42 1.42 0 00.019-.072l.013-.052c.29-1.143-.123-2.21-.991-2.778a1.777 1.777 0 00-.03-.02l-.002-.002h-.002v-.001a2.136 2.136 0 01-.048-.032c-.387-.248-.854-.375-12.517-3.538h-.002l-.001-.001-.004-.001-.013-.004a19858.43 19858.43 0 01-30.324-8.247zm51.922 23.292l-.666 37.632c-.034 1.968-2.07 3.632-4.035 3.309l-37.687-6.179c-2.904-.473-2.77-4.437.186-5.603l23.215-9.163 13.359-20.831c1.704-2.658 5.681-2.058 5.628.835z"/></g><defs><filter id="filter0_d" x="0" y="0" width="192.473" height="183.569" filterUnits="userSpaceOnUse" color-interpolation-filters="sRGB"><feFlood flood-opacity="0" result="BackgroundImageFix"/><feColorMatrix in="SourceAlpha" values="0 0 0 0 0 0 0 0 0 0 0 0 0 0 0 0 0 0 127 0"/><feOffset dy="4"/><feGaussianBlur stdDeviation="2"/><feColorMatrix values="0 0 0 0 0 0 0 0 0 0 0 0 0 0 0 0 0 0 0.25 0"/><feBlend in2="BackgroundImageFix" result="effect1_dropShadow"/><feBlend in="SourceGraphic" in2="effect1_dropShadow" result="shape"/></filter></defs></svg>