<svg width="753" height="1457" viewBox="0 0 753 1457" fill="none" xmlns="http://www.w3.org/2000/svg">
<path d="M234.797 854.758L234.797 907.295L146.551 995.421L146.551 1173.37L24.3645 1295.39C24.3645 1295.39 24.3645 1318.11 24.3645 1332.67M234.797 854.758L204.554 854.758C203.449 854.758 202.554 853.862 202.554 852.758L202.554 819.168M234.797 854.758L268.738 854.758M202.554 819.168L143.157 819.168M202.554 819.168L202.554 783.579M202.554 783.579L143.157 783.579M202.554 783.579L202.554 749.684M202.554 749.684L143.157 749.684M202.554 749.684L202.554 714.095M202.554 714.095L143.157 714.095L70.1845 644.541L71.8815 617.495M202.554 714.095L202.554 679.353M71.8815 617.495C60.6345 617.495 51.5171 608.39 51.5171 597.158C51.5171 585.926 60.6345 576.821 71.8815 576.821C83.1285 576.821 92.246 585.926 92.246 597.158C92.246 608.39 83.1285 617.495 71.8815 617.495ZM202.554 679.353L202.554 646.611C202.554 645.506 203.449 644.611 204.554 644.611L234.797 644.611M202.554 679.353L165.219 679.353L127.884 642.068L127.884 519.2L195.765 451.411L195.765 137.884L234.797 98.9054L234.797 44.6737M234.797 44.6737C223.55 44.6737 214.433 35.5686 214.433 24.3369C214.433 13.1052 223.55 3.99999 234.797 3.99999C246.044 3.99999 255.162 13.1052 255.162 24.3369C255.162 35.5686 246.044 44.6737 234.797 44.6737ZM71.8816 1412.33L71.8815 1295.39L177.098 1190.32L177.098 1017.45L268.738 925.937L268.738 854.758M71.8816 1412.33C60.6346 1412.33 51.5171 1421.43 51.5171 1432.66C51.5171 1443.89 60.6346 1453 71.8816 1453C83.1285 1453 92.246 1443.89 92.246 1432.66C92.246 1421.43 83.1285 1412.33 71.8816 1412.33ZM268.738 854.758L306.073 854.758M306.073 854.758L306.073 942.884L212.736 1036.09L212.736 1205.57L126.187 1292L126.187 1334.37M306.073 854.758L341.711 854.758M126.187 1334.37C114.94 1334.37 105.822 1343.47 105.822 1354.71C105.822 1365.94 114.94 1375.04 126.187 1375.04C137.434 1375.04 146.551 1365.94 146.551 1354.71C146.551 1343.47 137.434 1334.37 126.187 1334.37ZM341.711 854.758L341.711 942.884L377.349 978.474L377.349 1047.96M341.711 854.758L377.349 854.758M377.349 1047.96C366.102 1047.96 356.984 1057.06 356.984 1068.29C356.984 1079.53 366.102 1088.63 377.349 1088.63C388.596 1088.63 397.713 1079.53 397.713 1068.29C397.713 1057.06 388.596 1047.96 377.349 1047.96ZM429.957 1100.49L429.957 981.863L377.349 929.326L377.349 854.758M429.957 1100.49C418.71 1100.49 409.592 1109.6 409.592 1120.83C409.592 1132.06 418.71 1141.17 429.957 1141.17C441.204 1141.17 450.321 1132.06 450.321 1120.83C450.321 1109.6 441.204 1100.49 429.957 1100.49ZM377.349 854.758L410.986 854.758C412.091 854.758 412.986 853.862 412.986 852.758L412.986 819.168M412.986 819.168L535.173 819.168L587.781 766.632L655.663 766.632L689.604 800.526L708.271 800.526M412.986 819.168L412.986 785.274M708.271 800.526C708.271 789.295 717.389 780.189 728.636 780.189C739.883 780.189 749 789.295 749 800.526C749 811.758 739.883 820.863 728.636 820.863C717.389 820.863 708.271 811.758 708.271 800.526ZM708.271 731.042L572.508 731.042L518.203 785.274L412.986 785.274M708.271 731.042C708.271 719.81 717.389 710.705 728.636 710.705C739.883 710.705 749 719.81 749 731.042C749 742.274 739.883 751.379 728.636 751.379C717.389 751.379 708.271 742.274 708.271 731.042ZM412.986 785.274L412.986 749.684M412.986 749.684L501.232 749.684L548.749 702.232L672.633 702.232M412.986 749.684L412.986 714.095M412.986 714.095L482.565 714.095L535.173 661.558L708.271 661.558M412.986 714.095L412.986 678.505M708.271 661.558C708.271 650.326 717.389 641.221 728.636 641.221C739.883 641.221 749 650.326 749 661.558C749 672.79 739.883 681.895 728.636 681.895C717.389 681.895 708.271 672.79 708.271 661.558ZM657.36 607.326L625.116 607.326L606.449 625.968L513.112 625.968L460.503 678.505L412.986 678.505M657.36 607.326C657.36 596.095 666.477 586.989 677.724 586.989C688.971 586.989 698.089 596.095 698.089 607.326C698.089 618.558 688.971 627.663 677.724 627.663C666.477 627.663 657.36 618.558 657.36 607.326ZM412.986 678.505L412.986 646.611C412.986 645.506 412.091 644.611 410.986 644.611L377.349 644.611M377.349 644.611L377.349 590.379L446.927 520.895L446.927 485.305L429.957 468.358L429.957 414.126M377.349 644.611L341.711 644.611M341.711 644.611L341.711 273.463L358.681 256.516L358.681 229.4M341.711 644.611L306.073 644.611M358.681 229.4C347.434 229.4 338.317 220.295 338.317 209.063C338.317 197.831 347.434 188.726 358.681 188.726C369.928 188.726 379.046 197.831 379.046 209.063C379.046 220.295 369.928 229.4 358.681 229.4ZM234.797 644.611L234.797 151.442L306.073 80.2633L306.073 44.6737M234.797 644.611L270.435 644.611M306.073 44.6737C294.826 44.6737 285.708 35.5686 285.708 24.3369C285.708 13.1052 294.826 3.99999 306.073 3.99999C317.32 3.99999 326.437 13.1052 326.437 24.3369C326.437 35.5686 317.32 44.6737 306.073 44.6737ZM344.098 94.3887L270.435 168.39L270.435 644.611M344.098 94.3887C340.577 90.7329 338.411 85.7647 338.411 80.2915C338.411 69.0598 347.529 59.9546 358.776 59.9546C370.023 59.9546 379.14 69.0598 379.14 80.2915C379.14 91.5232 370.023 100.628 358.776 100.628C353.01 100.628 347.803 98.2349 344.098 94.3887ZM270.435 644.611L306.073 644.611M306.073 644.611L306.073 185.337L358.681 132.8L389.228 132.8M389.228 132.8C389.228 121.568 398.345 112.463 409.592 112.463C420.839 112.463 429.957 121.568 429.957 132.8C429.957 144.032 420.839 153.137 409.592 153.137C398.345 153.137 389.228 144.032 389.228 132.8ZM24.3645 1332.67C13.1175 1332.67 4 1341.78 4 1353.01C4 1364.24 13.1175 1373.35 24.3645 1373.35C35.6114 1373.35 44.7289 1364.24 44.7289 1353.01C44.7289 1341.78 35.6114 1332.67 24.3645 1332.67Z" stroke="url(#paint0_radial)" stroke-width="8"/>
<defs>
<radialGradient id="paint0_radial" cx="0" cy="0" r="1" gradientUnits="userSpaceOnUse" gradientTransform="translate(292 749) rotate(34.8451) scale(495.309 283.961)">
<stop stop-color="#F0F0F0"/>
<stop offset="1" stop-color="#363636" stop-opacity="0.1"/>
</radialGradient>
</defs>
</svg>
