<svg width="870" height="1751" viewBox="0 0 870 1751" fill="none" xmlns="http://www.w3.org/2000/svg">
<path d="M499.855 125.452V90.9858H256.853V330.607H288.87M499.855 125.452H573.741L603.295 95.9095C603.295 95.9095 603.295 61.8994 603.295 40.1073M499.855 125.452V158.277M603.295 40.1073C593.32 40.1073 585.234 32.0244 585.234 22.0536C585.234 12.0828 593.32 4 603.295 4C613.27 4 621.356 12.0828 621.356 22.0536C621.356 32.0244 613.27 40.1073 603.295 40.1073ZM499.855 158.277H588.518L673.897 72.9321V40.1073M499.855 158.277V194.384M673.897 40.1073C663.922 40.1073 655.836 32.0244 655.836 22.0536C655.836 12.0828 663.922 4 673.897 4C683.872 4 691.958 12.0828 691.958 22.0536C691.958 32.0244 683.872 40.1073 673.897 40.1073ZM499.855 194.384H588.518L724.796 330.607V411.028M499.855 194.384V227.209M724.796 411.028C714.821 411.028 706.735 419.111 706.735 429.082C706.735 439.053 714.821 447.135 724.796 447.135C734.771 447.135 742.857 439.053 742.857 429.082C742.857 419.111 734.771 411.028 724.796 411.028ZM499.855 227.209H573.741L677.181 330.607V363.432M499.855 227.209V261.675M677.181 363.432C667.206 363.432 659.12 371.515 659.12 381.486C659.12 391.457 667.206 399.54 677.181 399.54C687.156 399.54 695.242 391.457 695.242 381.486C695.242 371.515 687.156 363.432 677.181 363.432ZM499.855 261.675H555.68L624.64 330.607V411.028M499.855 261.675V296.141M624.64 411.028C614.665 411.028 606.579 419.111 606.579 429.082C606.579 439.053 614.665 447.135 624.64 447.135C634.615 447.135 642.701 439.053 642.701 429.082C642.701 419.111 634.615 411.028 624.64 411.028ZM499.855 296.141V330.607H467.017M499.855 296.141H537.619L573.741 332.249V363.432M573.741 363.432C563.766 363.432 555.68 371.515 555.68 381.486C555.68 391.457 563.766 399.54 573.741 399.54C583.716 399.54 591.802 391.457 591.802 381.486C591.802 371.515 583.716 363.432 573.741 363.432ZM467.017 330.607L467.017 397.898L568.815 499.655H775.695L847.939 571.87V688.398M467.017 330.607H432.537M847.939 688.398C837.964 688.398 829.878 696.481 829.878 706.452C829.878 716.423 837.964 724.506 847.939 724.506C857.914 724.506 866 716.423 866 706.452C866 696.481 857.914 688.398 847.939 688.398ZM432.537 330.607L432.537 414.311L552.396 534.121H759.276L797.04 571.87L797.04 908.325L672.255 1033.06V1558.26L501.497 1728.95H468.659M432.537 330.607H394.773M468.659 1728.95C468.659 1718.98 460.573 1710.89 450.598 1710.89C440.623 1710.89 432.537 1718.98 432.537 1728.95C432.537 1738.92 440.623 1747 450.598 1747C460.573 1747 468.659 1738.92 468.659 1728.95ZM394.773 330.607L394.773 430.723L519.558 555.458L519.558 875.5L568.815 924.737V1510.66L468.659 1610.78H312.678L276.556 1574.67H109.082L97.5886 1563.18H40.1219M394.773 330.607H357.01M40.1219 1563.18C40.1219 1553.21 32.0357 1545.13 22.061 1545.13C12.0862 1545.13 4 1553.21 4 1563.18C4 1573.15 12.0862 1581.23 22.061 1581.23C32.0357 1581.23 40.1219 1573.15 40.1219 1563.18ZM357.01 330.607L357.01 442.212L481.794 566.946V890.271L534.335 942.791V1489.32L445.672 1577.95H334.023L297.901 1541.84H210.88L194.461 1525.43H166.549M357.01 330.607H320.888M166.549 1525.43C166.549 1515.46 158.462 1507.38 148.488 1507.38C138.513 1507.38 130.427 1515.46 130.427 1525.43C130.427 1535.4 138.513 1543.49 148.488 1543.49C158.462 1543.49 166.549 1535.4 166.549 1525.43ZM320.888 330.607L320.888 458.624L445.672 583.359V911.607L494.93 960.845L494.93 1477.84L429.253 1543.49H345.516L312.678 1510.66H263.421L230.583 1477.84H215.806M320.888 330.607H288.87M215.806 1477.84C215.806 1467.87 207.72 1459.78 197.745 1459.78C187.77 1459.78 179.684 1467.87 179.684 1477.84C179.684 1487.81 187.77 1495.89 197.745 1495.89C207.72 1495.89 215.806 1487.81 215.806 1477.84ZM288.87 330.607L288.87 475.037L416.118 602.233V906.684L296.259 1026.49L296.259 1285.81L314.32 1303.86V1320.28M314.32 1320.28C304.345 1320.28 296.259 1328.36 296.259 1338.33C296.259 1348.3 304.345 1356.38 314.32 1356.38C324.295 1356.38 332.381 1348.3 332.381 1338.33C332.381 1328.36 324.295 1320.28 314.32 1320.28Z" stroke="url(#paint0_radial)" stroke-width="8"/>
<defs>
<radialGradient id="paint0_radial" cx="0" cy="0" r="1" gradientUnits="userSpaceOnUse" gradientTransform="translate(435 528.5) rotate(100.263) scale(1293.7 639.799)">
<stop stop-color="#595959" stop-opacity="0.41"/>
<stop offset="1" stop-color="#939393" stop-opacity="0"/>
</radialGradient>
</defs>
</svg>
