<svg width="26" height="26" viewBox="0 0 26 26" fill="none" xmlns="http://www.w3.org/2000/svg">
<path d="M13.2237 0.157227C6.31982 0.157227 0.723145 5.75492 0.723145 12.6577C0.723145 19.5616 6.31982 25.1572 13.2237 25.1572C20.1275 25.1572 25.7231 19.5616 25.7231 12.6577C25.7231 5.75492 20.127 0.157227 13.2237 0.157227ZM19.5204 10.1373C19.527 10.2724 19.5295 10.4079 19.5295 10.545C19.5295 14.7081 16.3608 19.5078 10.5667 19.5078C8.78794 19.5078 7.13153 18.9864 5.73756 18.093C5.98427 18.1219 6.23454 18.1366 6.48886 18.1366C7.96506 18.1366 9.32349 17.6331 10.4012 16.7884C9.02297 16.7625 7.85998 15.8513 7.45895 14.5999C7.65084 14.6375 7.84831 14.6563 8.05136 14.6563C8.33868 14.6563 8.61687 14.6187 8.88134 14.5461C7.43966 14.2568 6.35383 12.9826 6.35383 11.4577C6.35383 11.444 6.35383 11.4308 6.35434 11.4171C6.77872 11.6531 7.26453 11.7948 7.7813 11.8115C6.93558 11.2455 6.37972 10.2825 6.37972 9.18907C6.37972 8.61188 6.53506 8.07024 6.80613 7.60525C8.36 9.51091 10.6814 10.7653 13.2998 10.8962C13.246 10.6663 13.2181 10.4252 13.2181 10.1784C13.2181 8.43929 14.6283 7.02857 16.3684 7.02857C17.2746 7.02857 18.0929 7.41133 18.6675 8.02303C19.3853 7.88241 20.0595 7.61946 20.6681 7.25853C20.4321 7.9946 19.9331 8.61188 19.2823 9.00124C19.9204 8.9251 20.5275 8.75554 21.092 8.50528C20.6707 9.1383 20.1361 9.69315 19.5204 10.1373Z" fill="black"/>
</svg>
