<svg width="228" height="185" fill="none" xmlns="http://www.w3.org/2000/svg"><g filter="url(#filter0_d)" fill="#000"><path fill-rule="evenodd" clip-rule="evenodd" d="M18.808 60.28L114 121.232l95.192-60.95L114 0 18.808 60.28zM76.49 42.418L55.249 56.74a.993.993 0 00-.1 1.57l2.265 1.992a.993.993 0 001.21.079L73.43 50.42a.993.993 0 011.547.788l.762 21.106c.012.343.2.654.497.825l3.644 2.098a.993.993 0 001.044-.032l21.417-14.18a.993.993 0 00-.052-1.688l-2.748-1.582a.993.993 0 00-1.017.016l-15.358 9.488a.993.993 0 01-1.516-.827l-.382-21.163a.994.994 0 00-.462-.822l-3.23-2.045a.993.993 0 00-1.086.015zm34.25 28.355l-12.03 7.842a.993.993 0 00-.048 1.63l4.655 3.44a.993.993 0 001.113.045l12.61-7.812a.993.993 0 011.152.076l2.598 2.125a.993.993 0 01-.11 1.616l-11.376 6.956a.993.993 0 00-.099 1.626l4.257 3.37a.993.993 0 001.144.062l15.188-9.52a.994.994 0 011.075.012l3.262 2.151a.993.993 0 01-.015 1.668l-19.538 12.4a.993.993 0 01-1.111-.032L88.15 80.267a.993.993 0 01.06-1.654l18.864-11.58a.993.993 0 011.136.067l2.604 2.06a.994.994 0 01-.074 1.612zm7.801-10.012l25.638 17.758a.993.993 0 001.097.022l4.526-2.865c.6-.38.619-1.25.035-1.655l-13.331-9.266c-.815-.566-.387-1.846.604-1.809l31.758 1.198a.996.996 0 00.687-.241l3.341-2.885a.993.993 0 00-.121-1.593L145.693 42.4a.995.995 0 00-1.087.019l-4.139 2.808a.994.994 0 00.021 1.659l13.435 8.609c.852.546.438 1.867-.573 1.829l-31.838-1.186a.993.993 0 00-.796.353l-2.37 2.813a.993.993 0 00.195 1.456zm5.313-32.378l-9.893 6.961a.993.993 0 00-.128 1.519l1.965 1.944a.994.994 0 001.25.12l6.721-4.48c.378-.252.899-.224 1.148.157 1.843 2.824-2.284 7.697-4.735 9.46-3.385 2.436-22.423 2.68-22.423-6.027 0-7.707 10.199-8.617 15.517-8.147a1.031 1.031 0 001.12-.87l.556-3.961a.97.97 0 00-.943-1.113c-2.94-.04-11.017.045-14.558 2.035-4.372 2.456-8.857 7.002-9.203 11.386-.423 5.358 2.857 14.735 19.78 15.405 12.314.487 18.094-7.67 19.888-12.173.242-.607.971-.895 1.533-.562l1.656.983a.995.995 0 001.157-.102l3.127-2.7a.993.993 0 00-.096-1.577l-12.314-8.27a.993.993 0 00-1.125.012z"/><path d="M114 129.938l95.192-60.95v9.376L224 91.09v32.15h-5.923l-4.231-22.773-9.308-9.377-8.038 6.698 8.038 6.698v31.48h-6.769l-4.231-22.773-10.153-8.707-6.77 5.358 6.77 6.698v32.819h-5.5l-4.654-22.772-10.577-7.368-6.769 4.019 6.769 6.698v33.489h-5.5l-4.231-23.443-10.154-8.037-7.615 4.688 7.615 7.368v32.819h-5.5l-4.231-24.112-10.576-8.707-8.462 6.028-8.462-6.028-10.576 8.707-4.231 24.112h-5.5v-32.819l7.615-7.368-7.615-4.688-10.154 8.037-4.23 23.443h-5.5v-33.489l6.768-6.698-6.769-4.019-10.577 7.368-4.654 22.772h-5.5v-32.819l6.77-6.698-6.77-5.358-10.154 8.707-4.23 22.773h-6.77v-31.48l8.039-6.698-8.038-6.698-9.308 9.377-4.23 22.773H4V91.09l14.808-12.726v-9.377L114 129.938z"/></g><defs><filter id="filter0_d" x="0" y="0" width="228" height="184.822" filterUnits="userSpaceOnUse" color-interpolation-filters="sRGB"><feFlood flood-opacity="0" result="BackgroundImageFix"/><feColorMatrix in="SourceAlpha" values="0 0 0 0 0 0 0 0 0 0 0 0 0 0 0 0 0 0 127 0"/><feOffset dy="4"/><feGaussianBlur stdDeviation="2"/><feColorMatrix values="0 0 0 0 0 0 0 0 0 0 0 0 0 0 0 0 0 0 0.25 0"/><feBlend in2="BackgroundImageFix" result="effect1_dropShadow"/><feBlend in="SourceGraphic" in2="effect1_dropShadow" result="shape"/></filter></defs></svg>