<svg width="224" height="184" fill="none" xmlns="http://www.w3.org/2000/svg"><g filter="url(#filter0_d)" fill="#000"><path d="M121.797 151.252c-5.885 4.131-13.791 4.131-19.677 0L4 82.4v12.658c0 5.373 2.64 10.414 7.09 13.536l91.03 63.877c5.885 4.131 13.792 4.131 19.677 0l91.03-63.877c4.449-3.122 7.09-8.164 7.09-13.536V82.4l-98.12 68.852z"/><path fill-rule="evenodd" clip-rule="evenodd" d="M34.303 95.707L144.851 18.86l68.19 48.527a7.904 7.904 0 01-.062 12.977l-92.029 64.211c-5.446 3.8-12.751 3.765-18.159-.087l-68.488-48.78zm55.19 14.971c-2.276 0-4.852-1.095-4.74-3.327l3.216-20.46c.107-2.16 2.54-2.994 4.74-2.994s4.463.834 4.57 2.994l-2.877 17.133 23.701-1.663c2.2 0 4.632.834 4.74 2.994.111 2.232-2.465 3.327-4.74 3.327l-28.61 1.996zm23.023-54.06c-2.201 0-4.633.834-4.74 2.994-.018.362.035.695.146.998l25.714 46.076c.732 1.337 2.678 1.996 4.443 1.996 2.275 0 4.501-1.331 4.402-3.327a2.422 2.422 0 00-.339-1.116l-25.497-45.625c-.651-1.245-2.361-1.996-4.129-1.996zm45.032 24.618c-2.275 0-4.852-1.095-4.741-3.327l2.709-16.634-23.531 1.663c-2.275 0-4.852-1.094-4.741-3.326.108-2.16 2.54-2.995 4.741-2.995l28.271-1.995c2.201 0 4.633.834 4.74 2.994l-2.708 20.293c.111 2.232-2.465 3.327-4.74 3.327zM27.87 91.216l110.886-77.015-16.773-11.418c-5.484-3.733-12.756-3.709-18.214.061L10.823 67.037a7.245 7.245 0 00-.103 11.904l17.15 12.275zm1.862-18.464c.108-2.16 2.54-2.994 4.74-2.994 2.201 0 4.633.835 4.74 2.994.112 2.233-2.465 3.327-4.74 3.327-2.274 0-4.85-1.094-4.74-3.327zm13.205-8.982c.108-2.16 2.54-2.994 4.74-2.994s4.633.834 4.74 2.994c.112 2.233-2.465 3.327-4.74 3.327-2.275 0-4.851-1.094-4.74-3.327zm12.866-9.149c.108-2.16 2.54-2.994 4.74-2.994 2.201 0 4.633.835 4.74 2.994.112 2.233-2.465 3.327-4.74 3.327-2.274 0-4.85-1.094-4.74-3.327zm37.583-19.295c-2.275 0-4.851-1.094-4.74-3.327.045-.91.504-1.586 1.185-2.062l18.961-13.252c.922-.573 2.188-.82 3.385-.82 2.201 0 4.633.834 4.741 2.994a2.487 2.487 0 01-.652 1.83L96.772 34.423c-.927.604-2.198.902-3.386.902z"/></g><defs><filter id="filter0_d" x="0" y="0" width="223.917" height="183.569" filterUnits="userSpaceOnUse" color-interpolation-filters="sRGB"><feFlood flood-opacity="0" result="BackgroundImageFix"/><feColorMatrix in="SourceAlpha" values="0 0 0 0 0 0 0 0 0 0 0 0 0 0 0 0 0 0 127 0"/><feOffset dy="4"/><feGaussianBlur stdDeviation="2"/><feColorMatrix values="0 0 0 0 0 0 0 0 0 0 0 0 0 0 0 0 0 0 0.25 0"/><feBlend in2="BackgroundImageFix" result="effect1_dropShadow"/><feBlend in="SourceGraphic" in2="effect1_dropShadow" result="shape"/></filter></defs></svg>